<svg width="135" height="1065" viewBox="0 0 135 1065" fill="none" xmlns="http://www.w3.org/2000/svg">
<path d="M22.1484 967.014L34.9316 980.412C25.3158 989.527 20.5078 999.781 20.5078 1011.17C20.5078 1020.79 23.7891 1028.9 30.3516 1035.51C36.9141 1042.07 45.0033 1045.35 54.6191 1045.35C61.3184 1045.35 67.2656 1043.9 72.4609 1040.98C77.6562 1038.06 81.735 1033.94 84.6973 1028.61C87.6595 1023.27 89.1406 1017.35 89.1406 1010.83C89.1406 1005.27 88.1152 1000.19 86.0644 995.588C83.9681 990.985 80.1855 985.926 74.7168 980.412L88.2519 967.424C95.498 974.852 100.534 981.87 103.359 988.479C106.139 995.087 107.529 1002.63 107.529 1011.11C107.529 1026.74 102.585 1039.54 92.6953 1049.52C82.7604 1059.46 70.0456 1064.43 54.5508 1064.43C44.5247 1064.43 35.6152 1062.17 27.8223 1057.66C20.0293 1053.1 13.763 1046.61 9.02344 1038.18C4.28385 1029.7 1.91406 1020.58 1.91406 1010.83C1.91406 1002.54 3.66862 994.562 7.17773 986.906C10.6868 979.204 15.6771 972.574 22.1484 967.014ZM28.7109 917.316C28.7109 910.298 30.4655 903.713 33.9746 897.561C37.4837 891.363 42.2461 886.532 48.2617 883.068C54.2773 879.605 60.7715 877.873 67.7441 877.873C74.7624 877.873 81.3249 879.628 87.4316 883.137C93.5384 886.6 98.3236 891.34 101.787 897.355C105.205 903.371 106.914 910.002 106.914 917.248C106.914 927.912 103.132 937.027 95.5664 944.592C87.9557 952.111 78.7272 955.871 67.8809 955.871C56.2598 955.871 46.5755 951.61 38.8281 943.088C32.0833 935.614 28.7109 927.023 28.7109 917.316ZM46.2793 917.043C46.2793 922.831 48.3073 927.661 52.3633 931.535C56.3737 935.363 61.5234 937.277 67.8125 937.277C74.2838 937.277 79.5247 935.386 83.5352 931.604C87.5456 927.775 89.5508 922.945 89.5508 917.111C89.5508 911.278 87.5228 906.424 83.4668 902.551C79.4108 898.677 74.1927 896.74 67.8125 896.74C61.4323 896.74 56.2598 898.654 52.2949 902.482C48.2845 906.265 46.2793 911.118 46.2793 917.043ZM30.625 862.561L30.625 843.967L38.2129 843.967C34.6582 839.729 32.1973 835.9 30.8301 832.482C29.4173 829.019 28.7109 825.487 28.7109 821.887C28.7109 814.504 31.2858 808.238 36.4355 803.088C40.8105 798.758 47.2819 796.594 55.8496 796.594L105 796.594L105 815.051L72.3926 815.051C63.5058 815.051 57.6042 815.461 54.6875 816.281C51.7708 817.056 49.5605 818.446 48.0566 820.451C46.5072 822.411 45.7324 824.849 45.7324 827.766C45.7324 831.548 47.0085 834.807 49.5605 837.541C52.067 840.23 55.5534 842.098 60.0195 843.146C62.3437 843.693 67.3795 843.967 75.1269 843.967L105 843.967L105 862.561L30.625 862.561ZM30.625 723.518L30.625 704.924L94.3359 704.924C106.914 704.924 116.165 707.453 122.09 712.512C130.111 719.302 134.121 729.533 134.121 743.205C134.121 750.497 133.21 756.626 131.387 761.594C129.564 766.561 126.875 770.754 123.32 774.172C119.811 777.59 115.527 780.119 110.469 781.76L110.469 761.184C112.565 759.361 114.137 757.014 115.186 754.143C116.279 751.271 116.826 747.876 116.826 743.957C116.826 738.944 116.051 734.911 114.502 731.857C112.952 728.804 110.947 726.662 108.486 725.432C106.025 724.156 101.787 723.518 95.7715 723.518C99.0527 726.799 101.423 730.24 102.881 733.84C104.294 737.44 105 741.519 105 746.076C105 756.057 101.4 764.488 94.1992 771.369C86.9987 778.251 77.8841 781.691 66.8555 781.691C55.0521 781.691 45.5729 778.046 38.418 770.754C31.9466 764.146 28.7109 756.262 28.7109 747.102C28.7109 742.818 29.5084 738.785 31.1035 735.002C32.653 731.174 35.2278 727.346 38.8281 723.518L30.625 723.518ZM46.1426 742.863C46.1426 748.742 48.125 753.596 52.0898 757.424C56.0091 761.252 60.9538 763.166 66.9238 763.166C73.1217 763.166 78.2031 761.206 82.168 757.287C86.1328 753.368 88.1152 748.446 88.1152 742.521C88.1152 736.734 86.1784 731.971 82.3047 728.234C78.431 724.452 73.3496 722.561 67.0605 722.561C60.8626 722.561 55.8268 724.452 51.9531 728.234C48.0794 732.017 46.1426 736.893 46.1426 742.863ZM30.625 690.432L30.625 674.436L39.9902 674.436C36.2988 672.704 33.4961 670.402 31.582 667.531C29.668 664.66 28.7109 661.516 28.7109 658.098C28.7109 655.682 29.3489 653.153 30.625 650.51L46.6894 656.32C45.5957 658.508 45.0488 660.308 45.0488 661.721C45.0488 664.592 46.8262 667.03 50.3808 669.035C53.9355 670.995 60.9082 671.975 71.2988 671.975L74.9219 671.906L105 671.906L105 690.432L30.625 690.432ZM30.625 586.252L30.625 567.658L105 567.658L105 586.252L97.1387 586.252C100.602 589.898 103.109 593.566 104.658 597.258C106.162 600.904 106.914 604.868 106.914 609.152C106.914 618.768 103.2 627.085 95.7715 634.104C88.2975 641.122 79.0234 644.631 67.9492 644.631C56.4648 644.631 47.054 641.236 39.7168 634.445C32.3795 627.655 28.7109 619.406 28.7109 609.699C28.7109 605.233 29.554 601.04 31.2402 597.121C32.9264 593.202 35.4557 589.579 38.8281 586.252L30.625 586.252ZM45.9375 605.871C45.9375 611.659 47.9883 616.467 52.0898 620.295C56.1458 624.123 61.3639 626.037 67.7441 626.037C74.1699 626.037 79.4564 624.1 83.6035 620.227C87.7506 616.307 89.8242 611.499 89.8242 605.803C89.8242 599.924 87.7962 595.048 83.7402 591.174C79.6387 587.3 74.2838 585.363 67.6758 585.363C61.2044 585.363 55.9635 587.3 51.9531 591.174C47.9427 595.048 45.9375 599.947 45.9375 605.871ZM3.21287 546.535L3.21287 527.941L30.625 527.941L30.625 516.867L46.6894 516.867L46.6894 527.941L105 527.941L105 546.535L46.6894 546.535L46.6894 556.105L30.625 556.105L30.625 546.535L3.21287 546.535ZM30.625 506.887L30.625 488.02L66.4453 488.02C73.4179 488.02 78.2715 487.541 81.0058 486.584C83.6946 485.627 85.791 484.1 87.2949 482.004C88.7988 479.862 89.5508 477.242 89.5508 474.143C89.5508 471.044 88.8216 468.423 87.3633 466.281C85.8593 464.094 83.6718 462.476 80.8008 461.428C78.6588 460.653 74.0787 460.266 67.0605 460.266L30.625 460.266L30.625 441.535L62.1386 441.535C75.1269 441.535 84.0136 442.561 88.7988 444.611C94.6321 447.118 99.1211 450.809 102.266 455.686C105.365 460.562 106.914 466.76 106.914 474.279C106.914 482.437 105.091 489.045 101.445 494.104C97.7995 499.117 92.7181 502.648 86.2011 504.699C81.6894 506.158 73.4863 506.887 61.5918 506.887L30.625 506.887ZM1.91403 424.719L1.91403 406.057L105 406.057L105 424.719L1.91403 424.719ZM30.625 334.143L30.625 315.549L105 315.549L105 334.143L97.1386 334.143C100.602 337.788 103.109 341.457 104.658 345.148C106.162 348.794 106.914 352.759 106.914 357.043C106.914 366.659 103.2 374.976 95.7715 381.994C88.2975 389.012 79.0234 392.521 67.9492 392.521C56.4648 392.521 47.054 389.126 39.7168 382.336C32.3795 375.546 28.7109 367.297 28.7109 357.59C28.7109 353.124 29.554 348.931 31.2402 345.012C32.9264 341.092 35.4557 337.469 38.8281 334.143L30.625 334.143ZM45.9375 353.762C45.9375 359.549 47.9883 364.357 52.0898 368.186C56.1458 372.014 61.3639 373.928 67.7441 373.928C74.1699 373.928 79.4563 371.991 83.6035 368.117C87.7506 364.198 89.8242 359.39 89.8242 353.693C89.8242 347.814 87.7962 342.938 83.7402 339.064C79.6386 335.191 74.2838 333.254 67.6757 333.254C61.2044 333.254 55.9635 335.191 51.9531 339.064C47.9427 342.938 45.9375 347.837 45.9375 353.762ZM3.21286 294.426L3.21286 275.832L30.625 275.832L30.625 264.758L46.6894 264.758L46.6894 275.832L105 275.832L105 294.426L46.6894 294.426L46.6894 303.996L30.625 303.996L30.625 294.426L3.21286 294.426ZM-3.60009e-05 247.395C-3.61444e-05 244.113 1.18486 241.311 3.55465 238.986C5.92444 236.617 8.79554 235.432 12.1679 235.432C15.4948 235.432 18.3431 236.594 20.7129 238.918C23.0371 241.242 24.1992 244.022 24.1992 247.258C24.1992 250.585 23.0143 253.433 20.6445 255.803C18.2291 258.127 15.3125 259.289 11.8945 259.289C8.61325 259.289 5.81051 258.127 3.48629 255.803C1.16207 253.479 -3.58575e-05 250.676 -3.60009e-05 247.395ZM30.625 256.76L30.625 238.029L105 238.029L105 256.76L30.625 256.76ZM28.7109 186.145C28.7109 179.126 30.4655 172.541 33.9746 166.389C37.4837 160.191 42.2461 155.36 48.2617 151.896C54.2773 148.433 60.7714 146.701 67.7441 146.701C74.7623 146.701 81.3248 148.456 87.4316 151.965C93.5384 155.428 98.3235 160.168 101.787 166.184C105.205 172.199 106.914 178.83 106.914 186.076C106.914 196.74 103.131 205.855 95.5664 213.42C87.9557 220.939 78.7272 224.699 67.8808 224.699C56.2597 224.699 46.5755 220.438 38.8281 211.916C32.0833 204.442 28.7109 195.852 28.7109 186.145ZM46.2793 185.871C46.2793 191.659 48.3073 196.49 52.3632 200.363C56.3737 204.191 61.5234 206.105 67.8125 206.105C74.2838 206.105 79.5247 204.214 83.5351 200.432C87.5455 196.604 89.5507 191.773 89.5507 185.939C89.5507 180.106 87.5227 175.253 83.4668 171.379C79.4108 167.505 74.1927 165.568 67.8125 165.568C61.4323 165.568 56.2597 167.482 52.2949 171.311C48.2845 175.093 46.2793 179.947 46.2793 185.871ZM30.625 131.389L30.625 112.795L38.2128 112.795C34.6582 108.557 32.1972 104.729 30.83 101.311C29.4173 97.847 28.7109 94.3151 28.7109 90.7148C28.7109 83.332 31.2858 77.0658 36.4355 71.916C40.8105 67.5866 47.2819 65.4219 55.8496 65.4219L105 65.4219L105 83.8789L72.3925 83.8789C63.5058 83.8789 57.6041 84.2891 54.6875 85.1094C51.7708 85.8841 49.5605 87.2741 48.0566 89.2793C46.5071 91.2389 45.7324 93.6771 45.7324 96.5937C45.7324 100.376 47.0084 103.635 49.5605 106.369C52.067 109.058 55.5533 110.926 60.0195 111.975C62.3437 112.521 67.3795 112.795 75.1269 112.795L105 112.795L105 131.389L30.625 131.389ZM41.0156 1.77929L52.5683 13.332C47.9199 18.026 45.5957 22.2871 45.5957 26.1152C45.5957 28.2116 46.0514 29.8522 46.9628 31.0371C47.8287 32.222 48.9225 32.8144 50.2441 32.8144C51.2467 32.8144 52.1809 32.4499 53.0468 31.7207C53.8671 30.946 55.0065 29.0775 56.4648 26.1152L59.8828 19.2793C63.4375 12.0788 67.0605 7.13411 70.7519 4.44531C74.4433 1.75651 78.7727 0.412104 83.7402 0.412104C90.3483 0.412104 95.8626 2.85025 100.283 7.72656C104.704 12.5573 106.914 19.0514 106.914 27.209C106.914 38.0553 102.676 46.7142 94.1992 53.1855L81.6894 41.7012C84.2415 39.5137 86.3151 36.9616 87.9101 34.0449C89.4596 31.0827 90.2343 28.4622 90.2343 26.1836C90.2343 23.7227 89.6419 21.7402 88.457 20.2363C87.2721 18.7324 85.9049 17.9805 84.3554 17.9805C81.4843 17.9805 78.6816 20.6921 75.9472 26.1152L72.8027 32.4043C66.7415 44.4355 59.1536 50.4512 50.039 50.4512C44.1601 50.4512 39.1471 48.1953 35 43.6836C30.8072 39.1263 28.7109 33.3158 28.7109 26.252C28.7109 21.4212 29.7819 16.8867 31.9238 12.6484C34.0201 8.36458 37.0507 4.74153 41.0156 1.77929Z" fill="#4AD1DA" fill-opacity="0.21"/>
</svg>
