<svg width="1747" height="1080" viewBox="0 0 1747 1080" fill="none" xmlns="http://www.w3.org/2000/svg">
<circle cx="1146.59" cy="547.413" r="496.319" stroke="#2EC9D1" stroke-opacity="0.19" stroke-width="2"/>
<path d="M1703.83 546.83C1703.83 854.26 1454.34 1103.48 1146.59 1103.48C838.831 1103.48 589.347 854.26 589.347 546.83C589.347 239.4 838.831 -9.82349 1146.59 -9.82349C1454.34 -9.82349 1703.83 239.4 1703.83 546.83Z" stroke="#2EC9D1" stroke-opacity="0.19" stroke-width="2"/>
<path d="M1746.5 547.414C1746.5 878.737 1477.65 1147.33 1146 1147.33C814.353 1147.33 545.5 878.737 545.5 547.414C545.5 216.091 814.353 -52.5 1146 -52.5C1477.65 -52.5 1746.5 216.091 1746.5 547.414Z" stroke="#2EC9D1" stroke-opacity="0.19"/>
<circle cx="809.289" cy="578.711" r="668.022" stroke="#2EC9D1" stroke-opacity="0.19" stroke-width="2"/>
<path d="M1559.26 577.926C1559.26 991.689 1223.49 1327.11 809.289 1327.11C395.088 1327.11 59.3137 991.689 59.3137 577.926C59.3137 164.162 395.088 -171.261 809.289 -171.261C1223.49 -171.261 1559.26 164.162 1559.26 577.926Z" stroke="#2EC9D1" stroke-opacity="0.19" stroke-width="2"/>
<path d="M1616.5 578.712C1616.5 1024.52 1254.75 1385.92 808.5 1385.92C362.253 1385.92 0.5 1024.52 0.5 578.712C0.5 132.902 362.253 -228.5 808.5 -228.5C1254.75 -228.5 1616.5 132.902 1616.5 578.712Z" stroke="#2EC9D1" stroke-opacity="0.19"/>
</svg>
