<svg width="1172" height="153" viewBox="0 0 1172 153" fill="none" xmlns="http://www.w3.org/2000/svg">
<path d="M111.992 104.59H26.3477C27.5846 112.142 30.8724 118.164 36.2109 122.656C41.6146 127.083 48.4831 129.297 56.8164 129.297C66.7773 129.297 75.3385 125.814 82.5 118.848L104.961 129.395C99.362 137.337 92.6562 143.229 84.8438 147.07C77.0312 150.846 67.7539 152.734 57.0117 152.734C40.3451 152.734 26.7708 147.493 16.2891 137.012C5.80729 126.465 0.566406 113.281 0.566406 97.4609C0.566406 81.25 5.77474 67.806 16.1914 57.1289C26.6732 46.3867 39.7917 41.0156 55.5469 41.0156C72.2786 41.0156 85.8854 46.3867 96.3672 57.1289C106.849 67.806 112.09 81.9336 112.09 99.5117L111.992 104.59ZM85.2344 83.5938C83.4766 77.6693 79.9935 72.8516 74.7852 69.1406C69.6419 65.4297 63.6523 63.5742 56.8164 63.5742C49.3945 63.5742 42.8841 65.6576 37.2852 69.8242C33.7695 72.4284 30.5143 77.0182 27.5195 83.5938H85.2344ZM237.676 65.2344L215.508 77.4414C211.341 73.0794 207.207 70.0521 203.105 68.3594C199.069 66.6667 194.316 65.8203 188.848 65.8203C178.887 65.8203 170.814 68.8151 164.629 74.8047C158.509 80.7292 155.449 88.3464 155.449 97.6562C155.449 106.706 158.411 114.095 164.336 119.824C170.26 125.553 178.04 128.418 187.676 128.418C199.59 128.418 208.867 124.349 215.508 116.211L236.504 130.566C225.111 145.345 209.03 152.734 188.262 152.734C169.577 152.734 154.928 147.201 144.316 136.133C133.77 125.065 128.496 112.109 128.496 97.2656C128.496 86.9792 131.068 77.5065 136.211 68.8477C141.354 60.1888 148.516 53.3854 157.695 48.4375C166.94 43.4896 177.259 41.0156 188.652 41.0156C199.199 41.0156 208.672 43.1315 217.07 47.3633C225.469 51.5299 232.337 57.487 237.676 65.2344ZM311.699 41.0156C321.725 41.0156 331.133 43.5221 339.922 48.5352C348.776 53.5482 355.677 60.3516 360.625 68.9453C365.573 77.5391 368.047 86.8164 368.047 96.7773C368.047 106.803 365.54 116.178 360.527 124.902C355.579 133.626 348.809 140.462 340.215 145.41C331.621 150.293 322.148 152.734 311.797 152.734C296.562 152.734 283.542 147.331 272.734 136.523C261.992 125.651 256.621 112.467 256.621 96.9727C256.621 80.3711 262.708 66.5365 274.883 55.4688C285.56 45.8333 297.832 41.0156 311.699 41.0156ZM312.09 66.1133C303.822 66.1133 296.921 69.0104 291.387 74.8047C285.918 80.5339 283.184 87.8906 283.184 96.875C283.184 106.12 285.885 113.607 291.289 119.336C296.758 125.065 303.659 127.93 311.992 127.93C320.326 127.93 327.259 125.033 332.793 119.238C338.327 113.444 341.094 105.99 341.094 96.875C341.094 87.7604 338.359 80.3711 332.891 74.707C327.487 68.9779 320.553 66.1133 312.09 66.1133Z" fill="#55878A" fill-opacity="0.21"/>
<path d="M393.633 84.668H443.242V109.473H393.633V84.668ZM461.211 43.75H470.684C470.749 29.8177 470.977 21.582 471.367 19.043C472.083 13.1836 474.525 8.5612 478.691 5.17578C482.923 1.72526 488.88 0 496.562 0C502.096 0 508.346 1.26953 515.312 3.80859V24.1211C511.471 23.0143 508.314 22.4609 505.84 22.4609C502.715 22.4609 500.436 23.112 499.004 24.4141C497.962 25.3906 497.441 27.4089 497.441 30.4688L497.344 43.75H514.238V66.4062H497.344V150H470.684V66.4062H461.211V43.75ZM523.711 43.75H546.562V57.1289C549.036 51.8555 552.324 47.8516 556.426 45.1172C560.527 42.3828 565.02 41.0156 569.902 41.0156C573.353 41.0156 576.966 41.9271 580.742 43.75L572.441 66.6992C569.316 65.1367 566.745 64.3555 564.727 64.3555C560.625 64.3555 557.142 66.8945 554.277 71.9727C551.478 77.0508 550.078 87.0117 550.078 101.855L550.176 107.031V150H523.711V43.75ZM604.473 0C609.16 0 613.164 1.69271 616.484 5.07812C619.87 8.46354 621.562 12.5651 621.562 17.3828C621.562 22.1354 619.902 26.2044 616.582 29.5898C613.262 32.9102 609.29 34.5703 604.668 34.5703C599.915 34.5703 595.846 32.8776 592.461 29.4922C589.141 26.0417 587.48 21.875 587.48 16.9922C587.48 12.3047 589.141 8.30078 592.461 4.98047C595.781 1.66016 599.785 0 604.473 0ZM591.094 43.75H617.852V150H591.094V43.75ZM748.516 104.59H662.871C664.108 112.142 667.396 118.164 672.734 122.656C678.138 127.083 685.007 129.297 693.34 129.297C703.301 129.297 711.862 125.814 719.023 118.848L741.484 129.395C735.885 137.337 729.18 143.229 721.367 147.07C713.555 150.846 704.277 152.734 693.535 152.734C676.868 152.734 663.294 147.493 652.812 137.012C642.331 126.465 637.09 113.281 637.09 97.4609C637.09 81.25 642.298 67.806 652.715 57.1289C663.197 46.3867 676.315 41.0156 692.07 41.0156C708.802 41.0156 722.409 46.3867 732.891 57.1289C743.372 67.806 748.613 81.9336 748.613 99.5117L748.516 104.59ZM721.758 83.5938C720 77.6693 716.517 72.8516 711.309 69.1406C706.165 65.4297 700.176 63.5742 693.34 63.5742C685.918 63.5742 679.408 65.6576 673.809 69.8242C670.293 72.4284 667.038 77.0182 664.043 83.5938H721.758ZM770.195 43.75H796.758V54.5898C802.812 49.5117 808.281 45.9961 813.164 44.043C818.112 42.0247 823.158 41.0156 828.301 41.0156C838.848 41.0156 847.799 44.694 855.156 52.0508C861.341 58.3008 864.434 67.5456 864.434 79.7852V150H838.066V103.418C838.066 90.7227 837.48 82.2917 836.309 78.125C835.202 73.9583 833.216 70.8008 830.352 68.6523C827.552 66.4388 824.069 65.332 819.902 65.332C814.499 65.332 809.844 67.1549 805.938 70.8008C802.096 74.3815 799.427 79.362 797.93 85.7422C797.148 89.0625 796.758 96.2565 796.758 107.324V150H770.195V43.75ZM968.828 2.73438H995.391V150H968.828V138.77C963.62 143.717 958.379 147.298 953.105 149.512C947.897 151.66 942.233 152.734 936.113 152.734C922.376 152.734 910.495 147.428 900.469 136.816C890.443 126.139 885.43 112.891 885.43 97.0703C885.43 80.6641 890.28 67.2201 899.98 56.7383C909.681 46.2565 921.465 41.0156 935.332 41.0156C941.712 41.0156 947.702 42.2201 953.301 44.6289C958.9 47.0378 964.076 50.651 968.828 55.4688V2.73438ZM940.801 65.625C932.533 65.625 925.664 68.5547 920.195 74.4141C914.727 80.2083 911.992 87.6628 911.992 96.7773C911.992 105.957 914.759 113.509 920.293 119.434C925.892 125.358 932.76 128.32 940.898 128.32C949.297 128.32 956.263 125.423 961.797 119.629C967.331 113.77 970.098 106.12 970.098 96.6797C970.098 87.4349 967.331 79.9479 961.797 74.2188C956.263 68.4896 949.264 65.625 940.801 65.625ZM1019.51 2.73438H1046.17V150H1019.51V2.73438ZM1058.57 43.75H1085.82L1113.46 110.449L1143.93 43.75H1171.27L1104.67 188.867H1077.13L1099 142.09L1058.57 43.75Z" fill="#4AD1DA" fill-opacity="0.21"/>
</svg>
