<svg width="742" height="151" viewBox="0 0 742 151" fill="none" xmlns="http://www.w3.org/2000/svg">
<path d="M109.664 63.2344L87.4961 75.4414C83.3294 71.0794 79.1953 68.0521 75.0938 66.3594C71.0573 64.6667 66.3047 63.8203 60.8359 63.8203C50.875 63.8203 42.8021 66.8151 36.6172 72.8047C30.4974 78.7292 27.4375 86.3464 27.4375 95.6562C27.4375 104.706 30.3997 112.095 36.3242 117.824C42.2487 123.553 50.0286 126.418 59.6641 126.418C71.5781 126.418 80.8555 122.349 87.4961 114.211L108.492 128.566C97.099 143.345 81.0182 150.734 60.25 150.734C41.5651 150.734 26.9167 145.201 16.3047 134.133C5.75781 123.065 0.484375 110.109 0.484375 95.2656C0.484375 84.9792 3.05599 75.5065 8.19922 66.8477C13.3424 58.1888 20.5039 51.3854 29.6836 46.4375C38.9284 41.4896 49.2474 39.0156 60.6406 39.0156C71.1875 39.0156 80.6602 41.1315 89.0586 45.3633C97.457 49.5299 104.326 55.487 109.664 63.2344ZM130.953 0.734375H157.613V148H130.953V0.734375ZM288.277 102.59H202.633C203.87 110.142 207.158 116.164 212.496 120.656C217.9 125.083 224.768 127.297 233.102 127.297C243.062 127.297 251.624 123.814 258.785 116.848L281.246 127.395C275.647 135.337 268.941 141.229 261.129 145.07C253.316 148.846 244.039 150.734 233.297 150.734C216.63 150.734 203.056 145.493 192.574 135.012C182.092 124.465 176.852 111.281 176.852 95.4609C176.852 79.25 182.06 65.806 192.477 55.1289C202.958 44.3867 216.077 39.0156 231.832 39.0156C248.564 39.0156 262.171 44.3867 272.652 55.1289C283.134 65.806 288.375 79.9336 288.375 97.5117L288.277 102.59ZM261.52 81.5938C259.762 75.6693 256.279 70.8516 251.07 67.1406C245.927 63.4297 239.938 61.5742 233.102 61.5742C225.68 61.5742 219.169 63.6576 213.57 67.8242C210.055 70.4284 206.799 75.0182 203.805 81.5938H261.52ZM388.473 41.75H415.035V148H388.473V136.77C383.264 141.717 378.023 145.298 372.75 147.512C367.542 149.66 361.878 150.734 355.758 150.734C342.021 150.734 330.139 145.428 320.113 134.816C310.087 124.139 305.074 110.891 305.074 95.0703C305.074 78.6641 309.924 65.2201 319.625 54.7383C329.326 44.2565 341.109 39.0156 354.977 39.0156C361.357 39.0156 367.346 40.2201 372.945 42.6289C378.544 45.0378 383.72 48.651 388.473 53.4688V41.75ZM360.445 63.625C352.177 63.625 345.309 66.5547 339.84 72.4141C334.371 78.2083 331.637 85.6628 331.637 94.7773C331.637 103.957 334.404 111.509 339.938 117.434C345.536 123.358 352.405 126.32 360.543 126.32C368.941 126.32 375.908 123.423 381.441 117.629C386.975 111.77 389.742 104.12 389.742 94.6797C389.742 85.4349 386.975 77.9479 381.441 72.2188C375.908 66.4896 368.909 63.625 360.445 63.625ZM441.988 41.75H468.551V52.5898C474.605 47.5117 480.074 43.9961 484.957 42.043C489.905 40.0247 494.951 39.0156 500.094 39.0156C510.641 39.0156 519.592 42.694 526.949 50.0508C533.134 56.3008 536.227 65.5456 536.227 77.7852V148H509.859V101.418C509.859 88.7227 509.273 80.2917 508.102 76.125C506.995 71.9583 505.009 68.8008 502.145 66.6523C499.345 64.4388 495.862 63.332 491.695 63.332C486.292 63.332 481.637 65.1549 477.73 68.8008C473.889 72.3815 471.22 77.362 469.723 83.7422C468.941 87.0625 468.551 94.2565 468.551 105.324V148H441.988V41.75ZM668.551 102.59H582.906C584.143 110.142 587.431 116.164 592.77 120.656C598.173 125.083 605.042 127.297 613.375 127.297C623.336 127.297 631.897 123.814 639.059 116.848L661.52 127.395C655.921 135.337 649.215 141.229 641.402 145.07C633.59 148.846 624.312 150.734 613.57 150.734C596.904 150.734 583.329 145.493 572.848 135.012C562.366 124.465 557.125 111.281 557.125 95.4609C557.125 79.25 562.333 65.806 572.75 55.1289C583.232 44.3867 596.35 39.0156 612.105 39.0156C628.837 39.0156 642.444 44.3867 652.926 55.1289C663.408 65.806 668.648 79.9336 668.648 97.5117L668.551 102.59ZM641.793 81.5938C640.035 75.6693 636.552 70.8516 631.344 67.1406C626.201 63.4297 620.211 61.5742 613.375 61.5742C605.953 61.5742 599.443 63.6576 593.844 67.8242C590.328 70.4284 587.073 75.0182 584.078 81.5938H641.793ZM683.98 41.75H706.832V55.1289C709.306 49.8555 712.594 45.8516 716.695 43.1172C720.797 40.3828 725.289 39.0156 730.172 39.0156C733.622 39.0156 737.236 39.9271 741.012 41.75L732.711 64.6992C729.586 63.1367 727.014 62.3555 724.996 62.3555C720.895 62.3555 717.411 64.8945 714.547 69.9727C711.747 75.0508 710.348 85.0117 710.348 99.8555L710.445 105.031V148H683.98V41.75Z" fill="#4AD1DA" fill-opacity="0.21"/>
</svg>
