<svg width="1003" height="408" viewBox="0 0 1003 408" fill="none" xmlns="http://www.w3.org/2000/svg">
<path d="M370.664 279.234L348.496 291.441C344.329 287.079 340.195 284.052 336.094 282.359C332.057 280.667 327.305 279.82 321.836 279.82C311.875 279.82 303.802 282.815 297.617 288.805C291.497 294.729 288.438 302.346 288.438 311.656C288.438 320.706 291.4 328.095 297.324 333.824C303.249 339.553 311.029 342.418 320.664 342.418C332.578 342.418 341.855 338.349 348.496 330.211L369.492 344.566C358.099 359.345 342.018 366.734 321.25 366.734C302.565 366.734 287.917 361.201 277.305 350.133C266.758 339.065 261.484 326.109 261.484 311.266C261.484 300.979 264.056 291.507 269.199 282.848C274.342 274.189 281.504 267.385 290.684 262.438C299.928 257.49 310.247 255.016 321.641 255.016C332.188 255.016 341.66 257.132 350.059 261.363C358.457 265.53 365.326 271.487 370.664 279.234ZM391.953 216.734H418.613V364H391.953V216.734ZM549.277 318.59H463.633C464.87 326.142 468.158 332.164 473.496 336.656C478.9 341.083 485.768 343.297 494.102 343.297C504.062 343.297 512.624 339.814 519.785 332.848L542.246 343.395C536.647 351.337 529.941 357.229 522.129 361.07C514.316 364.846 505.039 366.734 494.297 366.734C477.63 366.734 464.056 361.493 453.574 351.012C443.092 340.465 437.852 327.281 437.852 311.461C437.852 295.25 443.06 281.806 453.477 271.129C463.958 260.387 477.077 255.016 492.832 255.016C509.564 255.016 523.171 260.387 533.652 271.129C544.134 281.806 549.375 295.934 549.375 313.512L549.277 318.59ZM522.52 297.594C520.762 291.669 517.279 286.852 512.07 283.141C506.927 279.43 500.938 277.574 494.102 277.574C486.68 277.574 480.169 279.658 474.57 283.824C471.055 286.428 467.799 291.018 464.805 297.594H522.52ZM649.473 257.75H676.035V364H649.473V352.77C644.264 357.717 639.023 361.298 633.75 363.512C628.542 365.66 622.878 366.734 616.758 366.734C603.021 366.734 591.139 361.428 581.113 350.816C571.087 340.139 566.074 326.891 566.074 311.07C566.074 294.664 570.924 281.22 580.625 270.738C590.326 260.257 602.109 255.016 615.977 255.016C622.357 255.016 628.346 256.22 633.945 258.629C639.544 261.038 644.72 264.651 649.473 269.469V257.75ZM621.445 279.625C613.177 279.625 606.309 282.555 600.84 288.414C595.371 294.208 592.637 301.663 592.637 310.777C592.637 319.957 595.404 327.509 600.938 333.434C606.536 339.358 613.405 342.32 621.543 342.32C629.941 342.32 636.908 339.423 642.441 333.629C647.975 327.77 650.742 320.12 650.742 310.68C650.742 301.435 647.975 293.948 642.441 288.219C636.908 282.49 629.909 279.625 621.445 279.625ZM702.988 257.75H729.551V268.59C735.605 263.512 741.074 259.996 745.957 258.043C750.905 256.025 755.951 255.016 761.094 255.016C771.641 255.016 780.592 258.694 787.949 266.051C794.134 272.301 797.227 281.546 797.227 293.785V364H770.859V317.418C770.859 304.723 770.273 296.292 769.102 292.125C767.995 287.958 766.009 284.801 763.145 282.652C760.345 280.439 756.862 279.332 752.695 279.332C747.292 279.332 742.637 281.155 738.73 284.801C734.889 288.382 732.22 293.362 730.723 299.742C729.941 303.062 729.551 310.257 729.551 321.324V364H702.988V257.75ZM929.551 318.59H843.906C845.143 326.142 848.431 332.164 853.77 336.656C859.173 341.083 866.042 343.297 874.375 343.297C884.336 343.297 892.897 339.814 900.059 332.848L922.52 343.395C916.921 351.337 910.215 357.229 902.402 361.07C894.59 364.846 885.312 366.734 874.57 366.734C857.904 366.734 844.329 361.493 833.848 351.012C823.366 340.465 818.125 327.281 818.125 311.461C818.125 295.25 823.333 281.806 833.75 271.129C844.232 260.387 857.35 255.016 873.105 255.016C889.837 255.016 903.444 260.387 913.926 271.129C924.408 281.806 929.648 295.934 929.648 313.512L929.551 318.59ZM902.793 297.594C901.035 291.669 897.552 286.852 892.344 283.141C887.201 279.43 881.211 277.574 874.375 277.574C866.953 277.574 860.443 279.658 854.844 283.824C851.328 286.428 848.073 291.018 845.078 297.594H902.793ZM944.98 257.75H967.832V271.129C970.306 265.855 973.594 261.852 977.695 259.117C981.797 256.383 986.289 255.016 991.172 255.016C994.622 255.016 998.236 255.927 1002.01 257.75L993.711 280.699C990.586 279.137 988.014 278.355 985.996 278.355C981.895 278.355 978.411 280.895 975.547 285.973C972.747 291.051 971.348 301.012 971.348 315.855L971.445 321.031V364H944.98V257.75Z" fill="#4AD1DA" fill-opacity="0.21"/>
<path d="M23.7578 51.7344H50.2227L50.2227 103.492C55.431 99 60.6719 95.6471 65.9453 93.4336C71.2187 91.1549 76.5573 90.0156 81.9609 90.0156C92.5078 90.0156 101.395 93.6615 108.621 100.953C114.806 107.268 117.898 116.546 117.898 128.785L117.898 199H91.6289V152.418C91.6289 140.113 91.043 131.78 89.8711 127.418C88.6992 123.056 86.681 119.801 83.8164 117.652C81.0169 115.504 77.5339 114.43 73.3672 114.43C67.9635 114.43 63.3086 116.22 59.4023 119.801C55.5612 123.382 52.8919 128.264 51.3945 134.449C50.6133 137.639 50.2227 144.931 50.2227 156.324L50.2227 199H23.7578L23.7578 51.7344ZM250.223 153.59H164.578C165.815 161.142 169.103 167.164 174.441 171.656C179.845 176.083 186.714 178.297 195.047 178.297C205.008 178.297 213.569 174.814 220.73 167.848L243.191 178.395C237.592 186.337 230.887 192.229 223.074 196.07C215.262 199.846 205.984 201.734 195.242 201.734C178.576 201.734 165.001 196.493 154.52 186.012C144.038 175.465 138.797 162.281 138.797 146.461C138.797 130.25 144.005 116.806 154.422 106.129C164.904 95.3867 178.022 90.0156 193.777 90.0156C210.509 90.0156 224.116 95.3867 234.598 106.129C245.079 116.806 250.32 130.934 250.32 148.512L250.223 153.59ZM223.465 132.594C221.707 126.669 218.224 121.852 213.016 118.141C207.872 114.43 201.883 112.574 195.047 112.574C187.625 112.574 181.115 114.658 175.516 118.824C172 121.428 168.745 126.018 165.75 132.594H223.465ZM350.418 92.75H376.98L376.98 199H350.418V187.77C345.21 192.717 339.969 196.298 334.695 198.512C329.487 200.66 323.823 201.734 317.703 201.734C303.966 201.734 292.085 196.428 282.059 185.816C272.033 175.139 267.02 161.891 267.02 146.07C267.02 129.664 271.87 116.22 281.57 105.738C291.271 95.2565 303.055 90.0156 316.922 90.0156C323.302 90.0156 329.292 91.2201 334.891 93.6289C340.49 96.0378 345.665 99.651 350.418 104.469V92.75ZM322.391 114.625C314.122 114.625 307.254 117.555 301.785 123.414C296.316 129.208 293.582 136.663 293.582 145.777C293.582 154.957 296.349 162.509 301.883 168.434C307.482 174.358 314.35 177.32 322.488 177.32C330.887 177.32 337.853 174.423 343.387 168.629C348.921 162.77 351.688 155.12 351.688 145.68C351.688 136.435 348.921 128.948 343.387 123.219C337.853 117.49 330.854 114.625 322.391 114.625ZM401.102 51.7344L427.762 51.7344L427.762 199H401.102L401.102 51.7344ZM455.203 53.5898L481.766 53.5898V92.75L497.586 92.75V115.699L481.766 115.699L481.766 199H455.203L455.203 115.699H441.531V92.75H455.203V53.5898ZM512.039 51.7344H538.504V103.492C543.712 99 548.953 95.6471 554.227 93.4336C559.5 91.1549 564.839 90.0156 570.242 90.0156C580.789 90.0156 589.676 93.6615 596.902 100.953C603.087 107.268 606.18 116.546 606.18 128.785V199H579.91V152.418C579.91 140.113 579.324 131.78 578.152 127.418C576.98 123.056 574.962 119.801 572.098 117.652C569.298 115.504 565.815 114.43 561.648 114.43C556.245 114.43 551.59 116.22 547.684 119.801C543.842 123.382 541.173 128.264 539.676 134.449C538.895 137.639 538.504 144.931 538.504 156.324V199H512.039V51.7344ZM642.508 49C647.195 49 651.199 50.6927 654.52 54.0781C657.905 57.4635 659.598 61.5651 659.598 66.3828C659.598 71.1354 657.938 75.2044 654.617 78.5898C651.297 81.9102 647.326 83.5703 642.703 83.5703C637.951 83.5703 633.882 81.8776 630.496 78.4922C627.176 75.0417 625.516 70.875 625.516 65.9922C625.516 61.3047 627.176 57.3008 630.496 53.9805C633.816 50.6602 637.82 49 642.508 49ZM629.129 92.75H655.887V199H629.129V92.75ZM786.551 153.59H700.906C702.143 161.142 705.431 167.164 710.77 171.656C716.173 176.083 723.042 178.297 731.375 178.297C741.336 178.297 749.897 174.814 757.059 167.848L779.52 178.395C773.921 186.337 767.215 192.229 759.402 196.07C751.59 199.846 742.312 201.734 731.57 201.734C714.904 201.734 701.329 196.493 690.848 186.012C680.366 175.465 675.125 162.281 675.125 146.461C675.125 130.25 680.333 116.806 690.75 106.129C701.232 95.3867 714.35 90.0156 730.105 90.0156C746.837 90.0156 760.444 95.3867 770.926 106.129C781.408 116.806 786.648 130.934 786.648 148.512L786.551 153.59ZM759.793 132.594C758.035 126.669 754.552 121.852 749.344 118.141C744.201 114.43 738.211 112.574 731.375 112.574C723.953 112.574 717.443 114.658 711.844 118.824C708.328 121.428 705.073 126.018 702.078 132.594H759.793ZM801.98 92.75H824.832V106.129C827.306 100.855 830.594 96.8516 834.695 94.1172C838.797 91.3828 843.289 90.0156 848.172 90.0156C851.622 90.0156 855.236 90.9271 859.012 92.75L850.711 115.699C847.586 114.137 845.014 113.355 842.996 113.355C838.895 113.355 835.411 115.895 832.547 120.973C829.747 126.051 828.348 136.012 828.348 150.855L828.445 156.031V199H801.98V92.75Z" fill="#A6C3C5" fill-opacity="0.21"/>
</svg>
