<svg width="58" height="58" viewBox="0 0 58 58" fill="none" xmlns="http://www.w3.org/2000/svg">
<path d="M40.0925 18.3185L24.1667 34.2443L15.4908 25.5927L12.0833 29.0002L24.1667 41.0835L43.5 21.7502L40.0925 18.3185ZM29 4.8335C15.66 4.8335 4.83334 15.6602 4.83334 29.0002C4.83334 42.3402 15.66 53.1668 29 53.1668C42.34 53.1668 53.1667 42.3402 53.1667 29.0002C53.1667 15.6602 42.34 4.8335 29 4.8335ZM29 48.3335C18.3183 48.3335 9.66668 39.6818 9.66668 29.0002C9.66668 18.3185 18.3183 9.66683 29 9.66683C39.6817 9.66683 48.3333 18.3185 48.3333 29.0002C48.3333 39.6818 39.6817 48.3335 29 48.3335Z" fill="#2EC9D1"/>
</svg>
