<svg width="76" height="493" viewBox="0 0 76 493" fill="none" xmlns="http://www.w3.org/2000/svg">
<path d="M2.17383 492.523L2.17383 452.826L15.6504 452.826L15.6504 465.912L74 465.912L74 479.779L15.6504 479.779L15.6504 492.523L2.17383 492.523ZM0.367185 444.867L0.367185 431.635L26.2461 431.635C24 429.031 22.3236 426.41 21.2168 423.773C20.0775 421.137 19.5078 418.467 19.5078 415.766C19.5078 410.492 21.3307 406.049 24.9766 402.436C28.1341 399.343 32.7728 397.797 38.8926 397.797L74 397.797L74 410.932L50.709 410.932C44.5566 410.932 40.39 411.225 38.209 411.811C36.028 412.396 34.4004 413.406 33.3262 414.838C32.2519 416.238 31.7148 417.979 31.7148 420.062C31.7148 422.764 32.61 425.092 34.4004 427.045C36.1908 428.965 38.6322 430.3 41.7246 431.049C43.3197 431.439 46.9655 431.635 52.6621 431.635L74 431.635L74 444.867L0.367185 444.867ZM20.875 345.6L20.875 332.318L74 332.318L74 345.6L68.3848 345.6C70.8587 348.204 72.6491 350.824 73.7559 353.461C74.8301 356.065 75.3672 358.897 75.3672 361.957C75.3672 368.826 72.7142 374.766 67.4082 379.779C62.0697 384.792 55.4453 387.299 47.5352 387.299C39.332 387.299 32.61 384.874 27.3691 380.023C22.1283 375.173 19.5078 369.281 19.5078 362.348C19.5078 359.158 20.11 356.163 21.3144 353.363C22.5189 350.564 24.3255 347.976 26.7344 345.6L20.875 345.6ZM31.8125 359.613C31.8125 363.747 33.2773 367.182 36.207 369.916C39.1042 372.65 42.8314 374.018 47.3887 374.018C51.9785 374.018 55.7546 372.634 58.7168 369.867C61.679 367.068 63.1602 363.633 63.1602 359.564C63.1602 355.365 61.7116 351.882 58.8144 349.115C55.8848 346.348 52.0599 344.965 47.3398 344.965C42.7174 344.965 38.974 346.348 36.1094 349.115C33.2448 351.882 31.8125 355.382 31.8125 359.613ZM20.875 318.842L20.875 305.561L26.2949 305.561C23.7559 302.533 21.998 299.799 21.0215 297.357C20.0124 294.883 19.5078 292.361 19.5078 289.789C19.5078 284.516 21.347 280.04 25.0254 276.361C28.1504 273.269 32.7728 271.723 38.8926 271.723L74 271.723L74 284.906L50.709 284.906C44.3613 284.906 40.1458 285.199 38.0625 285.785C35.9792 286.339 34.4004 287.331 33.3262 288.764C32.2194 290.163 31.666 291.905 31.666 293.988C31.666 296.69 32.5775 299.018 34.4004 300.971C36.1907 302.891 38.681 304.226 41.8711 304.975C43.5312 305.365 47.1282 305.561 52.6621 305.561L74 305.561L74 318.842L20.875 318.842ZM0.367177 258.686L0.367177 245.355L42.7988 245.355L20.875 225.727L20.875 209.027L46.3633 231.879L74 206.244L74 222.797L49.5371 245.355L74 245.355L74 258.686L0.367177 258.686ZM2.17381 176.41L2.17381 161.713L27.9551 148.334L2.17381 135.053L2.17381 120.551L42.8965 141.547L74 141.547L74 155.316L42.8965 155.316L2.17381 176.41ZM19.5078 85.7852C19.5078 80.7721 20.761 76.0684 23.2676 71.6738C25.7741 67.2467 29.1758 63.7962 33.4726 61.3223C37.7695 58.8483 42.4082 57.6113 47.3887 57.6113C52.4017 57.6113 57.0892 58.8646 61.4512 61.3711C65.8131 63.845 69.2311 67.2305 71.7051 71.5273C74.1465 75.8242 75.3672 80.5605 75.3672 85.7363C75.3672 93.3535 72.6653 99.8639 67.2617 105.268C61.8255 110.639 55.2337 113.324 47.4863 113.324C39.1855 113.324 32.2682 110.281 26.7344 104.193C21.9166 98.8548 19.5078 92.7187 19.5078 85.7852ZM32.0566 85.5898C32.0566 89.724 33.5052 93.1745 36.4023 95.9414C39.2669 98.6758 42.9453 100.043 47.4375 100.043C52.0599 100.043 55.8034 98.6921 58.668 95.9902C61.5325 93.2559 62.9648 89.8053 62.9648 85.6387C62.9648 81.472 61.5163 78.0052 58.6191 75.2383C55.722 72.4714 51.9948 71.0879 47.4375 71.0879C42.8802 71.0879 39.1855 72.4551 36.3535 75.1895C33.4889 77.8913 32.0566 81.3581 32.0566 85.5898ZM20.875 46.7227L20.875 33.2461L46.4609 33.2461C51.4414 33.2461 54.9082 32.9043 56.8613 32.2207C58.7819 31.5371 60.2793 30.4466 61.3535 28.9492C62.4277 27.4193 62.9648 25.5475 62.9648 23.334C62.9648 21.1204 62.444 19.2487 61.4023 17.7187C60.3281 16.1562 58.7656 15.0006 56.7148 14.2519C55.1849 13.6986 51.9134 13.4219 46.9004 13.4219L20.875 13.4219L20.875 0.0429667L43.3847 0.0429657C52.6621 0.0429653 59.0097 0.775387 62.4277 2.24023C66.5944 4.03059 69.8008 6.66731 72.0469 10.1504C74.2604 13.6335 75.3672 18.0605 75.3672 23.4316C75.3672 29.2585 74.0651 33.9785 71.4609 37.5918C68.8568 41.1725 65.2272 43.6953 60.5722 45.1602C57.3496 46.2018 51.4902 46.7227 42.9941 46.7227L20.875 46.7227Z" fill="#4AD1DA" fill-opacity="0.21"/>
</svg>
