<svg width="1319" height="1080" viewBox="0 0 1319 1080" fill="none" xmlns="http://www.w3.org/2000/svg">
<path d="M1278.92 599C1278.92 972.339 1019.89 1274.72 700.682 1274.72C381.469 1274.72 122.442 972.339 122.442 599C122.442 225.662 381.469 -76.7148 700.682 -76.7148C1019.89 -76.7148 1278.92 225.662 1278.92 599Z" stroke="#2EC9D1" stroke-opacity="0.13" stroke-width="2"/>
<path d="M1349.88 598.203C1349.88 1016.88 1059.08 1356.02 700.682 1356.02C342.281 1356.02 51.4873 1016.88 51.4873 598.203C51.4873 179.523 342.281 -159.611 700.682 -159.611C1059.08 -159.611 1349.88 179.523 1349.88 598.203Z" stroke="#2EC9D1" stroke-opacity="0.13" stroke-width="2"/>
<path d="M1399.5 599C1399.5 1050.02 1086.25 1415.5 700 1415.5C313.747 1415.5 0.5 1050.02 0.5 599C0.5 147.984 313.747 -217.5 700 -217.5C1086.25 -217.5 1399.5 147.984 1399.5 599Z" stroke="#2EC9D1" stroke-opacity="0.13"/>
</svg>
