<svg width="192" height="1009" viewBox="0 0 192 1009" fill="none" xmlns="http://www.w3.org/2000/svg">
<path d="M25.879 921.152L43.7501 941.367C33.8542 948.464 28.9063 955.69 28.9063 963.047C28.9063 966.628 29.8829 969.557 31.836 971.836C33.724 974.115 35.8725 975.254 38.2813 975.254C40.6902 975.254 42.9688 974.44 45.1172 972.812C47.9818 970.599 54.1342 963.926 63.5743 952.793C72.2982 942.376 77.7995 936.061 80.0782 933.848C85.6771 928.314 91.0482 924.408 96.1915 922.129C101.27 919.785 106.836 918.613 112.891 918.613C124.675 918.613 134.408 922.682 142.09 930.82C149.772 938.958 153.613 949.57 153.613 962.656C153.613 972.878 151.107 981.797 146.094 989.414C141.081 996.966 133.203 1003.44 122.461 1008.85L108.594 985.898C121.289 978.997 127.637 971.055 127.637 962.07C127.637 957.383 126.27 953.444 123.535 950.254C120.801 947.064 117.643 945.469 114.063 945.469C110.807 945.469 107.552 946.673 104.297 949.082C101.042 951.491 96.0613 956.797 89.3555 965C76.5951 980.625 66.7644 990.716 59.8633 995.273C52.8972 999.831 45.9636 1002.11 39.0626 1002.11C29.1016 1002.11 20.573 998.333 13.4766 990.781C6.31516 983.164 2.73443 973.789 2.73443 962.656C2.73443 955.495 4.39459 948.691 7.7149 942.246C11.0352 935.736 17.0899 928.704 25.879 921.152ZM5.54324e-05 884.824C5.52275e-05 880.137 1.69276 876.133 5.07818 872.812C8.4636 869.427 12.5652 867.734 17.3829 867.734C22.1355 867.734 26.2045 869.395 29.5899 872.715C32.9102 876.035 34.5704 880.007 34.5704 884.629C34.5704 889.382 32.8777 893.451 29.4922 896.836C26.0417 900.156 21.8751 901.816 16.9922 901.816C12.3047 901.816 8.30084 900.156 4.98052 896.836C1.66021 893.516 5.56373e-05 889.512 5.54324e-05 884.824ZM43.7501 898.203L43.7501 871.445L150 871.445L150 898.203L43.7501 898.203ZM43.7501 768.711L43.75 742.148L134.766 742.148C152.734 742.148 165.951 745.762 174.414 752.988C185.872 762.689 191.602 777.305 191.602 796.836C191.602 807.253 190.3 816.009 187.695 823.105C185.091 830.202 181.25 836.191 176.172 841.074C171.159 845.957 165.039 849.57 157.813 851.914L157.813 822.52C160.807 819.915 163.053 816.562 164.551 812.461C166.113 808.359 166.895 803.509 166.895 797.91C166.895 790.749 165.788 784.987 163.574 780.625C161.361 776.263 158.496 773.203 154.981 771.445C151.465 769.622 145.41 768.711 136.816 768.711C141.504 773.398 144.889 778.314 146.973 783.457C148.991 788.6 150 794.427 150 800.937C150 815.195 144.857 827.24 134.57 837.07C124.284 846.901 111.263 851.816 95.5079 851.816C78.6459 851.816 65.1042 846.608 54.8829 836.191C45.6381 826.751 41.0157 815.488 41.0157 802.402C41.0157 796.283 42.155 790.521 44.4336 785.117C46.6472 779.648 50.3256 774.18 55.4688 768.711L43.7501 768.711ZM65.918 796.348C65.918 804.746 68.7501 811.68 74.4141 817.148C80.0131 822.617 87.0769 825.352 95.6055 825.352C104.46 825.352 111.719 822.552 117.383 816.953C123.047 811.354 125.879 804.323 125.879 795.859C125.879 787.591 123.112 780.788 117.578 775.449C112.044 770.046 104.785 767.344 95.8008 767.344C86.9467 767.344 79.7527 770.046 74.2188 775.449C68.6849 780.853 65.918 787.819 65.918 796.348ZM43.75 715.195L43.75 688.633L54.5899 688.633C49.5118 682.578 45.9961 677.109 44.043 672.227C42.0248 667.279 41.0157 662.233 41.0157 657.09C41.0157 646.543 44.6941 637.591 52.0508 630.234C58.3008 624.049 67.5456 620.957 79.7852 620.957L150 620.957L150 647.324L103.418 647.324C90.7227 647.324 82.2917 647.91 78.125 649.082C73.9584 650.189 70.8008 652.174 68.6524 655.039C66.4388 657.839 65.3321 661.322 65.3321 665.488C65.3321 670.892 67.155 675.547 70.8008 679.453C74.3816 683.294 79.362 685.964 85.7422 687.461C89.0625 688.242 96.2566 688.633 107.324 688.633L150 688.633L150 715.195L43.75 715.195ZM4.23105e-05 584.629C4.21056e-05 579.941 1.69275 575.937 5.07817 572.617C8.46358 569.232 12.5651 567.539 17.3829 567.539C22.1355 567.539 26.2045 569.199 29.5899 572.52C32.9102 575.84 34.5704 579.811 34.5704 584.434C34.5704 589.186 32.8776 593.255 29.4922 596.641C26.0417 599.961 21.875 601.621 16.9922 601.621C12.3047 601.621 8.30082 599.961 4.98051 596.641C1.6602 593.32 4.25154e-05 589.316 4.23105e-05 584.629ZM43.75 598.008L43.75 571.25L150 571.25L150 598.008L43.75 598.008ZM43.75 547.031L43.75 520.469L54.5899 520.469C49.5118 514.414 45.9961 508.945 44.043 504.062C42.0248 499.115 41.0157 494.069 41.0157 488.926C41.0157 478.379 44.694 469.427 52.0508 462.07C58.3008 455.885 67.5456 452.793 79.7852 452.793L150 452.793L150 479.16L103.418 479.16C90.7227 479.16 82.2917 479.746 78.125 480.918C73.9584 482.025 70.8008 484.01 68.6524 486.875C66.4388 489.674 65.3321 493.158 65.3321 497.324C65.3321 502.728 67.155 507.383 70.8008 511.289C74.3815 515.13 79.362 517.799 85.7422 519.297C89.0625 520.078 96.2565 520.469 107.324 520.469L150 520.469L150 547.031L43.75 547.031ZM43.75 348.398L43.75 321.836L134.766 321.836C152.734 321.836 165.951 325.449 174.414 332.676C185.872 342.376 191.602 356.992 191.602 376.523C191.602 386.94 190.3 395.697 187.695 402.793C185.091 409.889 181.25 415.879 176.172 420.762C171.159 425.645 165.039 429.258 157.813 431.602L157.813 402.207C160.807 399.603 163.053 396.25 164.551 392.148C166.113 388.047 166.895 383.197 166.895 377.598C166.895 370.436 165.788 364.674 163.574 360.312C161.361 355.951 158.496 352.891 154.981 351.133C151.465 349.31 145.41 348.398 136.816 348.398C141.504 353.086 144.889 358.001 146.973 363.145C148.991 368.288 150 374.115 150 380.625C150 394.883 144.857 406.927 134.57 416.758C124.284 426.589 111.263 431.504 95.5078 431.504C78.6459 431.504 65.1042 426.296 54.8828 415.879C45.6381 406.439 41.0157 395.176 41.0157 382.09C41.0157 375.97 42.155 370.208 44.4336 364.805C46.6472 359.336 50.3256 353.867 55.4688 348.398L43.75 348.398ZM65.918 376.035C65.918 384.434 68.75 391.367 74.4141 396.836C80.0131 402.305 87.0769 405.039 95.6055 405.039C104.46 405.039 111.719 402.24 117.383 396.641C123.047 391.042 125.879 384.01 125.879 375.547C125.879 367.279 123.112 360.475 117.578 355.137C112.044 349.733 104.785 347.031 95.8008 347.031C86.9466 347.031 79.7526 349.733 74.2188 355.137C68.6849 360.54 65.918 367.507 65.918 376.035ZM6.34768 236.875L6.34768 209.434L99.3164 209.434C107.324 209.434 112.988 208.75 116.309 207.383C119.629 205.951 122.298 203.639 124.316 200.449C126.27 197.194 127.246 193.288 127.246 188.73C127.246 183.913 126.139 179.779 123.926 176.328C121.712 172.812 118.913 170.404 115.527 169.102C112.077 167.734 105.534 167.051 95.8985 167.051L6.34768 167.051L6.34768 139.609L91.9922 139.609C106.445 139.609 116.471 140.423 122.07 142.051C127.669 143.678 133.073 146.803 138.281 151.426C143.49 155.983 147.363 161.257 149.902 167.246C152.376 173.236 153.613 180.202 153.613 188.145C153.613 198.561 151.237 207.643 146.484 215.391C141.667 223.073 135.677 228.574 128.516 231.895C121.289 235.215 109.115 236.875 91.9922 236.875L6.34768 236.875ZM43.75 84.2383L55.4688 84.2383C50.6511 79.4206 47.0378 74.2122 44.6289 68.6133C42.2201 63.0143 41.0156 57.0247 41.0156 50.6445C41.0156 36.7773 46.2565 24.9935 56.7383 15.293C67.2201 5.59244 80.6641 0.742182 97.0703 0.742181C112.891 0.74218 126.139 5.7552 136.816 15.7812C147.428 25.8073 152.734 37.6888 152.734 51.4258C152.734 57.5456 151.66 63.2422 149.512 68.5156C147.298 73.7891 143.717 79.0299 138.77 84.2383L188.867 84.2383L188.867 110.703L43.75 110.703L43.75 84.2383ZM65.625 56.2109C65.625 64.6094 68.4896 71.5755 74.2188 77.1094C79.9479 82.6432 87.4349 85.4102 96.6797 85.4101C106.12 85.4101 113.77 82.6432 119.629 77.1094C125.423 71.5755 128.32 64.6094 128.32 56.2109C128.32 48.0729 125.358 41.237 119.434 35.7031C113.509 30.1042 105.957 27.3047 96.7774 27.3047C87.6628 27.3047 80.2084 30.0391 74.4141 35.5078C68.5547 40.9766 65.625 47.8776 65.625 56.2109Z" fill="#4AD1DA" fill-opacity="0.21"/>
</svg>
