<svg width="58" height="58" viewBox="0 0 58 58" fill="none" xmlns="http://www.w3.org/2000/svg">
<path d="M58 29C58 12.982 45.018 0 29 0C12.982 0 0 12.982 0 29C0 45.018 12.982 58 29 58C29.1699 58 29.3398 58 29.5098 57.9887V35.423H23.2793V28.1617H29.5098V22.8148C29.5098 16.6184 33.2934 13.2426 38.8215 13.2426C41.4723 13.2426 43.7492 13.4352 44.4062 13.5258V20.0055H40.6C37.598 20.0055 37.009 21.4328 37.009 23.5285V28.1504H44.2023L43.2621 35.4117H37.009V56.8785C49.1301 53.4008 58 42.2426 58 29V29Z" fill="#151515" fill-opacity="0.75"/>
</svg>
