<svg width="58" height="58" viewBox="0 0 58 58" fill="none" xmlns="http://www.w3.org/2000/svg">
<path d="M34.5508 29C34.5508 32.0657 32.0657 34.5508 29 34.5508C25.9343 34.5508 23.4492 32.0657 23.4492 29C23.4492 25.9343 25.9343 23.4492 29 23.4492C32.0657 23.4492 34.5508 25.9343 34.5508 29Z" fill="#151515" fill-opacity="0.75"/>
<path d="M41.9811 19.1789C41.7143 18.4559 41.2886 17.8014 40.7355 17.2642C40.1983 16.7111 39.5443 16.2854 38.8208 16.0185C38.234 15.7906 37.3525 15.5194 35.729 15.4455C33.9727 15.3654 33.4461 15.3481 28.9998 15.3481C24.5531 15.3481 24.0265 15.365 22.2706 15.4451C20.6471 15.5194 19.7652 15.7906 19.1789 16.0185C18.4554 16.2854 17.8009 16.7111 17.2641 17.2642C16.711 17.8014 16.2853 18.4554 16.0181 19.1789C15.7902 19.7657 15.5189 20.6476 15.445 22.2711C15.3649 24.027 15.3477 24.5536 15.3477 29.0003C15.3477 33.4466 15.3649 33.9732 15.445 35.7295C15.5189 37.353 15.7902 38.2345 16.0181 38.8213C16.2853 39.5448 16.7106 40.1988 17.2637 40.736C17.8009 41.2891 18.4549 41.7148 19.1784 41.9816C19.7652 42.21 20.6471 42.4812 22.2706 42.5551C24.0265 42.6352 24.5526 42.652 28.9994 42.652C33.4465 42.652 33.9731 42.6352 35.7285 42.5551C37.3521 42.4812 38.234 42.21 38.8208 41.9816C40.2731 41.4214 41.4209 40.2736 41.9811 38.8213C42.209 38.2345 42.4803 37.353 42.5546 35.7295C42.6347 33.9732 42.6515 33.4466 42.6515 29.0003C42.6515 24.5536 42.6347 24.027 42.5546 22.2711C42.4807 20.6476 42.2095 19.7657 41.9811 19.1789V19.1789ZM28.9998 37.5508C24.277 37.5508 20.4484 33.7227 20.4484 28.9999C20.4484 24.277 24.277 20.4489 28.9998 20.4489C33.7222 20.4489 37.5508 24.277 37.5508 28.9999C37.5508 33.7227 33.7222 37.5508 28.9998 37.5508ZM37.8889 22.1092C36.7852 22.1092 35.8905 21.2144 35.8905 20.1108C35.8905 19.0072 36.7852 18.1125 37.8889 18.1125C38.9925 18.1125 39.8872 19.0072 39.8872 20.1108C39.8868 21.2144 38.9925 22.1092 37.8889 22.1092Z" fill="#151515" fill-opacity="0.75"/>
<path d="M29 0C12.9862 0 0 12.9862 0 29C0 45.0138 12.9862 58 29 58C45.0138 58 58 45.0138 58 29C58 12.9862 45.0138 0 29 0ZM45.5519 35.8655C45.4714 37.6381 45.1895 38.8484 44.778 39.9077C43.9129 42.1446 42.1446 43.9129 39.9077 44.778C38.8488 45.1895 37.6381 45.4709 35.8659 45.5519C34.0901 45.6329 33.5228 45.6523 29.0004 45.6523C24.4776 45.6523 23.9108 45.6329 22.1345 45.5519C20.3623 45.4709 19.1516 45.1895 18.0927 44.778C16.9811 44.3598 15.9749 43.7044 15.143 42.857C14.296 42.0256 13.6407 41.0189 13.2225 39.9077C12.811 38.8488 12.5291 37.6381 12.4485 35.8659C12.3667 34.0897 12.3477 33.5224 12.3477 29C12.3477 24.4776 12.3667 23.9103 12.4481 22.1345C12.5286 20.3619 12.8101 19.1516 13.2216 18.0923C13.6398 16.9811 14.2956 15.9744 15.143 15.143C15.9744 14.2956 16.9811 13.6402 18.0923 13.222C19.1516 12.8105 20.3619 12.5291 22.1345 12.4481C23.9103 12.3671 24.4776 12.3477 29 12.3477C33.5224 12.3477 34.0897 12.3671 35.8655 12.4485C37.6381 12.5291 38.8484 12.8105 39.9077 13.2216C41.0189 13.6398 42.0256 14.2956 42.8575 15.143C43.7044 15.9749 44.3602 16.9811 44.778 18.0923C45.1899 19.1516 45.4714 20.3619 45.5523 22.1345C45.6333 23.9103 45.6523 24.4776 45.6523 29C45.6523 33.5224 45.6333 34.0897 45.5519 35.8655V35.8655Z" fill="#151515" fill-opacity="0.75"/>
</svg>
