<svg width="58" height="58" viewBox="0 0 58 58" fill="none" xmlns="http://www.w3.org/2000/svg">
<path d="M29 0C12.9862 0 0 12.9862 0 29C0 45.0138 12.9862 58 29 58C45.0138 58 58 45.0138 58 29C58 12.9862 45.0138 0 29 0ZM42.2411 22.6111C42.2539 22.8965 42.2601 23.1833 42.2601 23.4713C42.2601 32.267 35.565 42.4097 23.3213 42.4101H23.3218H23.3213C19.5623 42.4101 16.0643 41.3083 13.1185 39.4201C13.6393 39.4816 14.1694 39.5121 14.7062 39.5121C17.825 39.5121 20.6951 38.4484 22.9735 36.6629C20.0596 36.6089 17.6028 34.6844 16.755 32.0396C17.1608 32.1174 17.5781 32.1599 18.006 32.1599C18.6135 32.1599 19.2021 32.0781 19.7614 31.9254C16.7156 31.3156 14.4212 28.6239 14.4212 25.4007C14.4212 25.3706 14.4212 25.3436 14.4221 25.3157C15.3191 25.8144 16.3448 26.1144 17.4369 26.1481C15.6496 24.9555 14.4748 22.9169 14.4748 20.6075C14.4748 19.3879 14.8044 18.2454 15.3762 17.2617C18.6587 21.2894 23.5643 23.9382 29.0965 24.2165C28.9823 23.7289 28.9234 23.2209 28.9234 22.6987C28.9234 19.0242 31.9046 16.043 35.5805 16.043C37.4952 16.043 39.2245 16.8524 40.4392 18.1462C41.9557 17.8471 43.3796 17.2931 44.666 16.5307C44.1682 18.0843 43.1133 19.3879 41.7388 20.2123C43.0854 20.0512 44.3686 19.6941 45.5612 19.164C44.6704 20.499 43.5407 21.6717 42.2411 22.6111V22.6111Z" fill="#151515" fill-opacity="0.75"/>
</svg>
